<svg width="28" height="28" viewBox="0 0 28 28" fill="none" xmlns="http://www.w3.org/2000/svg">
<g clip-path="url(#clip0_1700_4054)">
<path d="M4.66675 22.1654C4.66675 22.7842 4.91258 23.3777 5.35017 23.8153C5.78775 24.2529 6.38124 24.4987 7.00008 24.4987C7.61892 24.4987 8.21241 24.2529 8.65 23.8153C9.08758 23.3777 9.33341 22.7842 9.33341 22.1654C9.33341 21.5465 9.08758 20.953 8.65 20.5154C8.21241 20.0779 7.61892 19.832 7.00008 19.832C6.38124 19.832 5.78775 20.0779 5.35017 20.5154C4.91258 20.953 4.66675 21.5465 4.66675 22.1654Z" stroke="white" stroke-width="1.5" stroke-linecap="round" stroke-linejoin="round"/>
<path d="M17.5 22.1654C17.5 22.7842 17.7458 23.3777 18.1834 23.8153C18.621 24.2529 19.2145 24.4987 19.8333 24.4987C20.4522 24.4987 21.0457 24.2529 21.4832 23.8153C21.9208 23.3777 22.1667 22.7842 22.1667 22.1654C22.1667 21.5465 21.9208 20.953 21.4832 20.5154C21.0457 20.0779 20.4522 19.832 19.8333 19.832C19.2145 19.832 18.621 20.0779 18.1834 20.5154C17.7458 20.953 17.5 21.5465 17.5 22.1654Z" stroke="white" stroke-width="1.5" stroke-linecap="round" stroke-linejoin="round"/>
<path d="M19.8334 19.8333H7.00008V3.5H4.66675" stroke="white" stroke-width="1.5" stroke-linecap="round" stroke-linejoin="round"/>
<path d="M7 5.83203L23.3333 6.9987L22.1667 15.1654H7" stroke="white" stroke-width="1.5" stroke-linecap="round" stroke-linejoin="round"/>
</g>
<defs>
<clipPath id="clip0_1700_4054">
<rect width="28" height="28" fill="white"/>
</clipPath>
</defs>
</svg>
