<svg width="120" height="23" viewBox="0 0 120 23" fill="none" xmlns="http://www.w3.org/2000/svg">
<path d="M19.5009 2.29048C21.9304 -0.227446 26.0452 -0.217411 27.1943 3.13839C27.4193 3.7954 27.5992 4.47096 27.7315 5.16027C28.2717 7.97483 27.9944 10.8921 26.9348 13.5433C25.8752 16.1945 24.0808 18.4605 21.7785 20.0548C19.4762 21.6491 16.7694 22.5 14.0005 22.5C11.2315 22.5 8.52476 21.6491 6.22252 20.0548C3.92019 18.4605 2.1258 16.1945 1.06616 13.5432C0.00653076 10.8921 -0.270664 7.97483 0.269485 5.16027C0.401775 4.47096 0.581665 3.7954 0.806705 3.13839C1.95584 -0.217411 6.07054 -0.227446 8.50011 2.29048L12.2505 6.17724C12.6088 6.54858 12.5718 7.16099 12.4729 7.676C12.4129 7.98908 12.4437 8.31362 12.5616 8.60857C12.6795 8.90352 12.8791 9.15563 13.1352 9.33295C13.3913 9.51027 13.6924 9.60497 14.0005 9.60497C14.3085 9.60497 14.6096 9.51027 14.8657 9.33295C15.1219 9.15563 15.3215 8.90352 15.4394 8.60857C15.5573 8.31362 15.5881 7.98908 15.528 7.676C15.4291 7.16099 15.3922 6.54858 15.7505 6.17724L19.5009 2.29048Z" fill="white"/>
<path d="M47.7731 5.48609L43.0751 17.9961H40.6991L35.9831 5.48609H38.1791L41.8871 15.8901L45.6131 5.48609H47.7731ZM50.5332 6.76409C50.1612 6.76409 49.8492 6.63809 49.5972 6.38609C49.3452 6.13409 49.2192 5.82209 49.2192 5.45009C49.2192 5.07809 49.3452 4.76609 49.5972 4.51409C49.8492 4.26209 50.1612 4.13609 50.5332 4.13609C50.8932 4.13609 51.1992 4.26209 51.4512 4.51409C51.7032 4.76609 51.8292 5.07809 51.8292 5.45009C51.8292 5.82209 51.7032 6.13409 51.4512 6.38609C51.1992 6.63809 50.8932 6.76409 50.5332 6.76409ZM51.5412 8.07809V17.9961H49.4892V8.07809H51.5412ZM57.8353 18.1581C57.0553 18.1581 56.3533 18.0201 55.7293 17.7441C55.1173 17.4561 54.6313 17.0721 54.2713 16.5921C53.9113 16.1001 53.7193 15.5541 53.6953 14.9541H55.8193C55.8553 15.3741 56.0533 15.7281 56.4133 16.0161C56.7853 16.2921 57.2473 16.4301 57.7993 16.4301C58.3753 16.4301 58.8193 16.3221 59.1313 16.1061C59.4553 15.8781 59.6173 15.5901 59.6173 15.2421C59.6173 14.8701 59.4373 14.5941 59.0773 14.4141C58.7293 14.2341 58.1713 14.0361 57.4033 13.8201C56.6593 13.6161 56.0533 13.4181 55.5853 13.2261C55.1173 13.0341 54.7093 12.7401 54.3613 12.3441C54.0253 11.9481 53.8573 11.4261 53.8573 10.7781C53.8573 10.2501 54.0133 9.77009 54.3253 9.33809C54.6373 8.89409 55.0813 8.54609 55.6573 8.29409C56.2453 8.04209 56.9173 7.91609 57.6733 7.91609C58.8013 7.91609 59.7073 8.20409 60.3913 8.78009C61.0873 9.34409 61.4593 10.1181 61.5073 11.1021H59.4553C59.4193 10.6581 59.2393 10.3041 58.9153 10.0401C58.5913 9.77609 58.1533 9.64409 57.6013 9.64409C57.0613 9.64409 56.6473 9.74609 56.3593 9.95009C56.0713 10.1541 55.9273 10.4241 55.9273 10.7601C55.9273 11.0241 56.0233 11.2461 56.2153 11.4261C56.4073 11.6061 56.6413 11.7501 56.9173 11.8581C57.1933 11.9541 57.6013 12.0801 58.1413 12.2361C58.8613 12.4281 59.4493 12.6261 59.9053 12.8301C60.3733 13.0221 60.7753 13.3101 61.1113 13.6941C61.4473 14.0781 61.6213 14.5881 61.6333 15.2241C61.6333 15.7881 61.4773 16.2921 61.1653 16.7361C60.8533 17.1801 60.4093 17.5281 59.8333 17.7801C59.2693 18.0321 58.6033 18.1581 57.8353 18.1581ZM68.9805 7.91609C69.7365 7.91609 70.4085 8.07809 70.9965 8.40209C71.5965 8.72609 72.0645 9.20609 72.4005 9.84209C72.7485 10.4781 72.9225 11.2461 72.9225 12.1461V17.9961H70.8885V12.4521C70.8885 11.5641 70.6665 10.8861 70.2225 10.4181C69.7785 9.93809 69.1725 9.69809 68.4045 9.69809C67.6365 9.69809 67.0245 9.93809 66.5685 10.4181C66.1245 10.8861 65.9025 11.5641 65.9025 12.4521V17.9961H63.8505V4.67609H65.9025V9.23009C66.2505 8.81009 66.6885 8.48609 67.2165 8.25809C67.7565 8.03009 68.3445 7.91609 68.9805 7.91609ZM82.6097 9.75209V15.2421C82.6097 15.6141 82.6937 15.8841 82.8617 16.0521C83.0417 16.2081 83.3417 16.2861 83.7617 16.2861H85.0217V17.9961H83.4017C82.4777 17.9961 81.7697 17.7801 81.2777 17.3481C80.7857 16.9161 80.5397 16.2141 80.5397 15.2421V9.75209H79.3697V8.07809H80.5397V5.61209H82.6097V8.07809H85.0217V9.75209H82.6097ZM96.003 12.7941C96.003 13.1661 95.979 13.5021 95.931 13.8021H88.353C88.413 14.5941 88.707 15.2301 89.235 15.7101C89.763 16.1901 90.411 16.4301 91.179 16.4301C92.283 16.4301 93.063 15.9681 93.519 15.0441H95.733C95.433 15.9561 94.887 16.7061 94.095 17.2941C93.315 17.8701 92.343 18.1581 91.179 18.1581C90.231 18.1581 89.379 17.9481 88.623 17.5281C87.879 17.0961 87.291 16.4961 86.859 15.7281C86.439 14.9481 86.229 14.0481 86.229 13.0281C86.229 12.0081 86.433 11.1141 86.841 10.3461C87.261 9.56609 87.843 8.96609 88.587 8.54609C89.343 8.12609 90.207 7.91609 91.179 7.91609C92.115 7.91609 92.949 8.12009 93.681 8.52809C94.413 8.93609 94.983 9.51209 95.391 10.2561C95.799 10.9881 96.003 11.8341 96.003 12.7941ZM93.861 12.1461C93.849 11.3901 93.579 10.7841 93.051 10.3281C92.523 9.87209 91.869 9.64409 91.089 9.64409C90.381 9.64409 89.775 9.87209 89.271 10.3281C88.767 10.7721 88.467 11.3781 88.371 12.1461H93.861ZM97.3384 13.0281C97.3384 12.0081 97.5424 11.1141 97.9504 10.3461C98.3704 9.56609 98.9464 8.96609 99.6784 8.54609C100.41 8.12609 101.25 7.91609 102.198 7.91609C103.398 7.91609 104.388 8.20409 105.168 8.78009C105.96 9.34409 106.494 10.1541 106.77 11.2101H104.556C104.376 10.7181 104.088 10.3341 103.692 10.0581C103.296 9.78209 102.798 9.64409 102.198 9.64409C101.358 9.64409 100.686 9.94409 100.182 10.5441C99.6904 11.1321 99.4444 11.9601 99.4444 13.0281C99.4444 14.0961 99.6904 14.9301 100.182 15.5301C100.686 16.1301 101.358 16.4301 102.198 16.4301C103.386 16.4301 104.172 15.9081 104.556 14.8641H106.77C106.482 15.8721 105.942 16.6761 105.15 17.2761C104.358 17.8641 103.374 18.1581 102.198 18.1581C101.25 18.1581 100.41 17.9481 99.6784 17.5281C98.9464 17.0961 98.3704 16.4961 97.9504 15.7281C97.5424 14.9481 97.3384 14.0481 97.3384 13.0281ZM113.945 7.91609C114.701 7.91609 115.373 8.07809 115.961 8.40209C116.561 8.72609 117.029 9.20609 117.365 9.84209C117.713 10.4781 117.887 11.2461 117.887 12.1461V17.9961H115.853V12.4521C115.853 11.5641 115.631 10.8861 115.187 10.4181C114.743 9.93809 114.137 9.69809 113.369 9.69809C112.601 9.69809 111.989 9.93809 111.533 10.4181C111.089 10.8861 110.867 11.5641 110.867 12.4521V17.9961H108.815V4.67609H110.867V9.23009C111.215 8.81009 111.653 8.48609 112.181 8.25809C112.721 8.03009 113.309 7.91609 113.945 7.91609Z" fill="white"/>
</svg>
